# xmcd
#
# Track frame offsets: 
#        150
#        24746
#        57073
#        102269
#        121847
#        148200
#        174931
#        203760
#        227323
#        247615
#        263758
#        293851
#
# Disc length: 4323 seconds
#
# Revision: 1
# Processed by: cddbd v1.5.2PL0 Copyright (c) Steve Scherf et al.
# Submitted via: ExactAudioCopy v0.99pb5
#
DISCID=9910e10c
DTITLE=Tommy Castro - The Legendary Rhythm and Blues Revue - Live!
DYEAR=2011
DGENRE=Blues
TTITLE0=Wake Up Call
TTITLE1=Gotta Serve Somebody
TTITLE2=Voodoo Spell (featuring Michael Burks)
TTITLE3=It's A Shame (featuring Joe Louis Walker)
TTITLE4=Never Say Never (featuring Sista Monica Parker)
TTITLE5=My Next Ex-Wife (featuring Rick Estrin)
TTITLE6=Fog (featuring Trampled Under Foot)
TTITLE7=Painkiller
TTITLE8=Think (featuring Janiva Magness)
TTITLE9=This Time I Know (featuring Theodis Ealey)
TTITLE10=All I Found (featuring Debbie Davies)
TTITLE11=Serves Me Right To Suffer
EXTD=
EXTT0=
EXTT1=
EXTT2=
EXTT3=
EXTT4=
EXTT5=
EXTT6=
EXTT7=
EXTT8=
EXTT9=
EXTT10=
EXTT11=
PLAYORDER=
